<?xml version="1.0" encoding="UTF-8" standalone="no" ?>
<!DOCTYPE svg PUBLIC "-//W3C//DTD SVG 1.1//EN" "http://www.w3.org/Graphics/SVG/1.1/DTD/svg11.dtd">
<svg xmlns="http://www.w3.org/2000/svg" xmlns:xlink="http://www.w3.org/1999/xlink" version="1.1" width="484.353125" height="112.28031999999999" xml:space="preserve">
<desc>Created with Fabric.js 1.6.0-rc.1</desc>
<defs></defs>
  <g transform="translate(399.56 57.02) scale(1.76 1.76)">
   <text font-family="FFF Tusj" font-size="40" font-weight="normal" style="stroke: none; stroke-width: 1; stroke-dasharray: none; stroke-linecap: butt; stroke-linejoin: miter; stroke-miterlimit: 10; fill: #000000; fill-rule: nonzero; opacity: 1;" ><tspan x="-43" y="8.98" style="stroke: none; stroke-width: 0; stroke-dasharray: none; stroke-linecap: butt; stroke-linejoin: miter; stroke-miterlimit: 4; fill: #000000; fill-rule: ; opacity: 1;">H</tspan><tspan x="-10.5" y="8.98" style="stroke: none; stroke-width: 0; stroke-dasharray: none; stroke-linecap: butt; stroke-linejoin: miter; stroke-miterlimit: 4; fill: #000000; fill-rule: ; opacity: 1;">u</tspan><tspan x="18.84" y="8.98" style="stroke: none; stroke-width: 0; stroke-dasharray: none; stroke-linecap: butt; stroke-linejoin: miter; stroke-miterlimit: 4; fill: #000000; fill-rule: ; opacity: 1;">b</tspan></text>
 </g>
  <g transform="translate(206.36 50.88) scale(1.53 1.53)">
   <text font-family="FFF Tusj" font-size="40" font-weight="normal" style="stroke: none; stroke-width: 1; stroke-dasharray: none; stroke-linecap: butt; stroke-linejoin: miter; stroke-miterlimit: 10; fill: #36c6e0; fill-rule: nonzero; opacity: 1;" ><tspan x="-80.13" y="8.98" style="stroke: none; stroke-width: 0; stroke-dasharray: none; stroke-linecap: butt; stroke-linejoin: miter; stroke-miterlimit: 4; fill: #36c6e0; fill-rule: ; opacity: 1;">C</tspan><tspan x="-54.01" y="8.98" style="stroke: none; stroke-width: 0; stroke-dasharray: none; stroke-linecap: butt; stroke-linejoin: miter; stroke-miterlimit: 4; fill: #36c6e0; fill-rule: ; opacity: 1;">a</tspan><tspan x="-31.51" y="8.98" style="stroke: none; stroke-width: 0; stroke-dasharray: none; stroke-linecap: butt; stroke-linejoin: miter; stroke-miterlimit: 4; fill: #36c6e0; fill-rule: ; opacity: 1;">y</tspan><tspan x="-9.03" y="8.98" style="stroke: none; stroke-width: 0; stroke-dasharray: none; stroke-linecap: butt; stroke-linejoin: miter; stroke-miterlimit: 4; fill: #36c6e0; fill-rule: ; opacity: 1;">m</tspan><tspan x="30.97" y="8.98" style="stroke: none; stroke-width: 0; stroke-dasharray: none; stroke-linecap: butt; stroke-linejoin: miter; stroke-miterlimit: 4; fill: #36c6e0; fill-rule: ; opacity: 1;">a</tspan><tspan x="53.47" y="8.98" style="stroke: none; stroke-width: 0; stroke-dasharray: none; stroke-linecap: butt; stroke-linejoin: miter; stroke-miterlimit: 4; fill: #36c6e0; fill-rule: ; opacity: 1;">n</tspan></text>
 </g>
<g style="stroke: none; stroke-width: 1; stroke-dasharray: none; stroke-linecap: butt; stroke-linejoin: miter; stroke-miterlimit: 10; fill: none; fill-rule: nonzero; opacity: 1;" transform="translate(10 10) scale(0.13 0.13)" >
  <path d="M 268.59 50.361 h -25.18 c -4.635 0 -8.393 3.758 -8.393 8.393 v 142.689 c 0 4.635 3.758 8.393 8.393 8.393 h 25.18 c 4.635 0 8.393 -3.758 8.393 -8.393 V 58.754 C 276.984 54.119 273.225 50.361 268.59 50.361 z" style="stroke: none; stroke-width: 1; stroke-dasharray: none; stroke-linecap: butt; stroke-linejoin: miter; stroke-miterlimit: 10; fill: #FFD042; fill-rule: nonzero; opacity: 1;" transform=" matrix(1 0 0 1 0 0) " stroke-linecap="round" />
  <circle cx="256" cy="37.77" r="37.77" style="stroke: none; stroke-width: 1; stroke-dasharray: none; stroke-linecap: butt; stroke-linejoin: miter; stroke-miterlimit: 10; fill: #38CED9; fill-rule: nonzero; opacity: 1;" transform="  matrix(1 0 0 1 0 0) "/>
  <path d="M 268.59 62.951 c -20.86 0 -37.77 -16.911 -37.77 -37.77 c 0 -7.204 2.019 -13.935 5.518 -19.663 c -10.859 6.634 -18.108 18.597 -18.108 32.253 c 0 20.86 16.911 37.77 37.77 37.77 c 13.656 0 25.619 -7.249 32.253 -18.108 C 282.525 60.932 275.794 62.951 268.59 62.951 z" style="stroke: none; stroke-width: 1; stroke-dasharray: none; stroke-linecap: butt; stroke-linejoin: miter; stroke-miterlimit: 10; fill: #0EBEC7; fill-rule: nonzero; opacity: 1;" transform=" matrix(1 0 0 1 0 0) " stroke-linecap="round" />
  <rect x="235.02" y="104.92" rx="0" ry="0" width="41.97" height="58.75" style="stroke: none; stroke-width: 1; stroke-dasharray: none; stroke-linecap: butt; stroke-linejoin: miter; stroke-miterlimit: 10; fill: #FFC412; fill-rule: nonzero; opacity: 1;" transform=" matrix(1 0 0 1 0 0) "/>
  <path d="M 119.493 101.689 l -17.806 17.806 c -3.278 3.278 -3.278 8.593 0 11.87 l 100.897 100.897 c 3.278 3.278 8.592 3.278 11.87 0 l 17.806 -17.806 c 3.278 -3.278 3.278 -8.593 0 -11.87 L 131.364 101.689 C 128.086 98.411 122.771 98.411 119.493 101.689 z" style="stroke: none; stroke-width: 1; stroke-dasharray: none; stroke-linecap: butt; stroke-linejoin: miter; stroke-miterlimit: 10; fill: #FFD042; fill-rule: nonzero; opacity: 1;" transform=" matrix(1 0 0 1 0 0) " stroke-linecap="round" />
  <circle cx="101.69" cy="101.69" r="37.77" style="stroke: none; stroke-width: 1; stroke-dasharray: none; stroke-linecap: butt; stroke-linejoin: miter; stroke-miterlimit: 10; fill: #38CED9; fill-rule: nonzero; opacity: 1;" transform="  matrix(1 0 0 1 0 0) "/>
  <path d="M 86.604 114.839 c -11.857 -11.857 -14.174 -29.632 -6.969 -43.813 c -1.628 1.174 -3.188 2.489 -4.654 3.954 c -14.75 14.75 -14.75 38.665 0 53.416 s 38.665 14.75 53.416 0 c 2.894 -2.894 5.21 -6.143 6.969 -9.603 C 120.603 129.437 99.888 128.124 86.604 114.839 z" style="stroke: none; stroke-width: 1; stroke-dasharray: none; stroke-linecap: butt; stroke-linejoin: miter; stroke-miterlimit: 10; fill: #0EBEC7; fill-rule: nonzero; opacity: 1;" transform=" matrix(1 0 0 1 0 0) " stroke-linecap="round" />
  <rect x="148.97" y="140.57" rx="0" ry="0" width="41.97" height="58.75" style="stroke: none; stroke-width: 1; stroke-dasharray: none; stroke-linecap: butt; stroke-linejoin: miter; stroke-miterlimit: 10; fill: #FFC412; fill-rule: nonzero; opacity: 1;" transform=" matrix(-0.7071 0.7071 -0.7071 -0.7071 410.2902 169.9447) "/>
  <path d="M 50.361 243.41 v 25.18 c 0 4.635 3.758 8.393 8.393 8.393 h 142.689 c 4.635 0 8.393 -3.758 8.393 -8.393 v -25.18 c 0 -4.635 -3.758 -8.393 -8.393 -8.393 H 58.754 C 54.119 235.016 50.361 238.775 50.361 243.41 z" style="stroke: none; stroke-width: 1; stroke-dasharray: none; stroke-linecap: butt; stroke-linejoin: miter; stroke-miterlimit: 10; fill: #FFD042; fill-rule: nonzero; opacity: 1;" transform=" matrix(1 0 0 1 0 0) " stroke-linecap="round" />
  <circle cx="37.77" cy="256" r="37.77" style="stroke: none; stroke-width: 1; stroke-dasharray: none; stroke-linecap: butt; stroke-linejoin: miter; stroke-miterlimit: 10; fill: #38CED9; fill-rule: nonzero; opacity: 1;" transform="  matrix(1 0 0 1 0 0) "/>
  <path d="M 50.361 285.377 c -20.86 0 -37.77 -16.911 -37.77 -37.771 c 0 -10.375 4.186 -19.772 10.958 -26.598 C 9.74 226.627 0 240.173 0 256 c 0 20.86 16.911 37.77 37.77 37.77 c 10.484 0 19.969 -4.274 26.813 -11.173 C 60.193 284.384 55.394 285.377 50.361 285.377 z" style="stroke: none; stroke-width: 1; stroke-dasharray: none; stroke-linecap: butt; stroke-linejoin: miter; stroke-miterlimit: 10; fill: #0EBEC7; fill-rule: nonzero; opacity: 1;" transform=" matrix(1 0 0 1 0 0) " stroke-linecap="round" />
  <rect x="104.92" y="235.02" rx="0" ry="0" width="58.75" height="41.97" style="stroke: none; stroke-width: 1; stroke-dasharray: none; stroke-linecap: butt; stroke-linejoin: miter; stroke-miterlimit: 10; fill: #FFC412; fill-rule: nonzero; opacity: 1;" transform=" matrix(1 0 0 1 0 0) "/>
  <path d="M 101.689 392.507 l 17.806 17.806 c 3.278 3.278 8.593 3.278 11.87 0 l 100.897 -100.897 c 3.278 -3.278 3.278 -8.592 0 -11.87 l -17.806 -17.806 c -3.278 -3.278 -8.593 -3.278 -11.87 0 L 101.689 380.636 C 98.411 383.914 98.411 389.229 101.689 392.507 z" style="stroke: none; stroke-width: 1; stroke-dasharray: none; stroke-linecap: butt; stroke-linejoin: miter; stroke-miterlimit: 10; fill: #FFD042; fill-rule: nonzero; opacity: 1;" transform=" matrix(1 0 0 1 0 0) " stroke-linecap="round" />
  <circle cx="101.69" cy="410.31" r="37.77" style="stroke: none; stroke-width: 1; stroke-dasharray: none; stroke-linecap: butt; stroke-linejoin: miter; stroke-miterlimit: 10; fill: #38CED9; fill-rule: nonzero; opacity: 1;" transform="  matrix(1 0 0 1 0 0) "/>
  <path d="M 90.8 425.396 c -13.751 -13.75 -14.676 -35.461 -2.791 -50.291 c -4.746 1.841 -9.198 4.668 -13.029 8.498 c -14.75 14.75 -14.75 38.665 0 53.416 c 14.75 14.75 38.665 14.75 53.416 0 c 1 -1 1.926 -2.046 2.791 -3.124 C 117.659 439.143 101.72 436.315 90.8 425.396 z" style="stroke: none; stroke-width: 1; stroke-dasharray: none; stroke-linecap: butt; stroke-linejoin: miter; stroke-miterlimit: 10; fill: #0EBEC7; fill-rule: nonzero; opacity: 1;" transform=" matrix(1 0 0 1 0 0) " stroke-linecap="round" />
  <rect x="148.95" y="312.68" rx="0" ry="0" width="41.97" height="58.75" style="stroke: none; stroke-width: 1; stroke-dasharray: none; stroke-linecap: butt; stroke-linejoin: miter; stroke-miterlimit: 10; fill: #FFC412; fill-rule: nonzero; opacity: 1;" transform=" matrix(0.7071 0.7071 -0.7071 0.7071 291.6451 -19.9749) "/>
  <path d="M 243.41 461.639 h 25.18 c 4.635 0 8.393 -3.758 8.393 -8.393 V 310.557 c 0 -4.635 -3.758 -8.393 -8.393 -8.393 h -25.18 c -4.635 0 -8.393 3.758 -8.393 8.393 v 142.689 C 235.016 457.881 238.775 461.639 243.41 461.639 z" style="stroke: none; stroke-width: 1; stroke-dasharray: none; stroke-linecap: butt; stroke-linejoin: miter; stroke-miterlimit: 10; fill: #FFD042; fill-rule: nonzero; opacity: 1;" transform=" matrix(1 0 0 1 0 0) " stroke-linecap="round" />
  <circle cx="256" cy="474.22999999999996" r="37.77" style="stroke: none; stroke-width: 1; stroke-dasharray: none; stroke-linecap: butt; stroke-linejoin: miter; stroke-miterlimit: 10; fill: #38CED9; fill-rule: nonzero; opacity: 1;" transform="  matrix(1 0 0 1 0 0) "/>
  <path d="M 268.59 499.41 c -20.86 0 -37.77 -16.911 -37.77 -37.771 c 0 -7.204 2.019 -13.935 5.518 -19.663 c -10.859 6.634 -18.108 18.597 -18.108 32.253 c 0 20.86 16.911 37.77 37.77 37.77 c 13.656 0 25.619 -7.249 32.253 -18.108 C 282.525 497.391 275.794 499.41 268.59 499.41 z" style="stroke: none; stroke-width: 1; stroke-dasharray: none; stroke-linecap: butt; stroke-linejoin: miter; stroke-miterlimit: 10; fill: #0EBEC7; fill-rule: nonzero; opacity: 1;" transform=" matrix(1 0 0 1 0 0) " stroke-linecap="round" />
  <rect x="235.02" y="348.33" rx="0" ry="0" width="41.97" height="58.75" style="stroke: none; stroke-width: 1; stroke-dasharray: none; stroke-linecap: butt; stroke-linejoin: miter; stroke-miterlimit: 10; fill: #FFC412; fill-rule: nonzero; opacity: 1;" transform=" matrix(1 0 0 1 0 0) "/>
  <path d="M 392.507 410.311 l 17.806 -17.806 c 3.278 -3.278 3.278 -8.593 0 -11.87 L 309.416 279.739 c -3.278 -3.278 -8.592 -3.278 -11.87 0 l -17.806 17.806 c -3.278 3.278 -3.278 8.593 0 11.87 l 100.897 100.896 C 383.914 413.589 389.229 413.589 392.507 410.311 z" style="stroke: none; stroke-width: 1; stroke-dasharray: none; stroke-linecap: butt; stroke-linejoin: miter; stroke-miterlimit: 10; fill: #FFD042; fill-rule: nonzero; opacity: 1;" transform=" matrix(1 0 0 1 0 0) " stroke-linecap="round" />
  <circle cx="410.31" cy="410.31" r="37.77" style="stroke: none; stroke-width: 1; stroke-dasharray: none; stroke-linecap: butt; stroke-linejoin: miter; stroke-miterlimit: 10; fill: #38CED9; fill-rule: nonzero; opacity: 1;" transform="  matrix(1 0 0 1 0 0) "/>
  <path d="M 397.161 425.396 c -13.285 -13.285 -14.598 -34 -3.954 -48.762 c -3.46 1.758 -6.71 4.076 -9.603 6.969 c -14.75 14.75 -14.75 38.665 0 53.416 c 14.75 14.75 38.665 14.75 53.416 0 c 1.466 -1.466 2.779 -3.026 3.954 -4.654 C 426.793 439.57 409.018 437.253 397.161 425.396 z" style="stroke: none; stroke-width: 1; stroke-dasharray: none; stroke-linecap: butt; stroke-linejoin: miter; stroke-miterlimit: 10; fill: #0EBEC7; fill-rule: nonzero; opacity: 1;" transform=" matrix(1 0 0 1 0 0) " stroke-linecap="round" />
  <rect x="321.08" y="312.68" rx="0" ry="0" width="41.97" height="58.75" style="stroke: none; stroke-width: 1; stroke-dasharray: none; stroke-linecap: butt; stroke-linejoin: miter; stroke-miterlimit: 10; fill: #FFC412; fill-rule: nonzero; opacity: 1;" transform=" matrix(0.7071 -0.7071 0.7071 0.7071 -141.6794 342.0631) "/>
  <path d="M 461.639 268.59 v -25.18 c 0 -4.635 -3.758 -8.393 -8.393 -8.393 H 310.557 c -4.635 0 -8.393 3.758 -8.393 8.393 v 25.18 c 0 4.635 3.758 8.393 8.393 8.393 h 142.689 C 457.881 276.984 461.639 273.225 461.639 268.59 z" style="stroke: none; stroke-width: 1; stroke-dasharray: none; stroke-linecap: butt; stroke-linejoin: miter; stroke-miterlimit: 10; fill: #FFD042; fill-rule: nonzero; opacity: 1;" transform=" matrix(1 0 0 1 0 0) " stroke-linecap="round" />
  <circle cx="474.22999999999996" cy="256" r="37.77" style="stroke: none; stroke-width: 1; stroke-dasharray: none; stroke-linecap: butt; stroke-linejoin: miter; stroke-miterlimit: 10; fill: #38CED9; fill-rule: nonzero; opacity: 1;" transform="  matrix(1 0 0 1 0 0) "/>
  <path d="M 486.82 285.377 c -20.86 0 -37.77 -16.911 -37.77 -37.771 c 0 -10.375 4.186 -19.772 10.958 -26.598 c -13.808 5.618 -23.548 19.164 -23.548 34.991 c 0 20.86 16.911 37.77 37.771 37.77 c 10.484 0 19.969 -4.274 26.813 -11.173 C 496.652 284.384 491.853 285.377 486.82 285.377 z" style="stroke: none; stroke-width: 1; stroke-dasharray: none; stroke-linecap: butt; stroke-linejoin: miter; stroke-miterlimit: 10; fill: #0EBEC7; fill-rule: nonzero; opacity: 1;" transform=" matrix(1 0 0 1 0 0) " stroke-linecap="round" />
  <rect x="348.33" y="235.02" rx="0" ry="0" width="58.75" height="41.97" style="stroke: none; stroke-width: 1; stroke-dasharray: none; stroke-linecap: butt; stroke-linejoin: miter; stroke-miterlimit: 10; fill: #FFC412; fill-rule: nonzero; opacity: 1;" transform=" matrix(1 0 0 1 0 0) "/>
  <path d="M 410.311 119.493 l -17.806 -17.806 c -3.278 -3.278 -8.593 -3.278 -11.87 0 L 279.739 202.584 c -3.278 3.278 -3.278 8.592 0 11.87 l 17.806 17.806 c 3.278 3.278 8.593 3.278 11.87 0 l 100.896 -100.897 C 413.589 128.086 413.589 122.771 410.311 119.493 z" style="stroke: none; stroke-width: 1; stroke-dasharray: none; stroke-linecap: butt; stroke-linejoin: miter; stroke-miterlimit: 10; fill: #FFD042; fill-rule: nonzero; opacity: 1;" transform=" matrix(1 0 0 1 0 0) " stroke-linecap="round" />
  <circle cx="410.31" cy="101.69" r="37.77" style="stroke: none; stroke-width: 1; stroke-dasharray: none; stroke-linecap: butt; stroke-linejoin: miter; stroke-miterlimit: 10; fill: #38CED9; fill-rule: nonzero; opacity: 1;" transform="  matrix(1 0 0 1 0 0) "/>
  <path d="M 397.161 119.036 c -14.413 -14.413 -14.734 -37.569 -0.982 -52.382 c -4.577 1.843 -8.866 4.618 -12.575 8.327 c -14.75 14.75 -14.75 38.665 0 53.416 c 14.75 14.75 38.665 14.75 53.416 0 c 0.338 -0.338 0.66 -0.686 0.982 -1.033 C 424.378 132.851 408.202 130.076 397.161 119.036 z" style="stroke: none; stroke-width: 1; stroke-dasharray: none; stroke-linecap: butt; stroke-linejoin: miter; stroke-miterlimit: 10; fill: #0EBEC7; fill-rule: nonzero; opacity: 1;" transform=" matrix(1 0 0 1 0 0) " stroke-linecap="round" />
  <rect x="321.06" y="140.56" rx="0" ry="0" width="41.97" height="58.75" style="stroke: none; stroke-width: 1; stroke-dasharray: none; stroke-linecap: butt; stroke-linejoin: miter; stroke-miterlimit: 10; fill: #FFC412; fill-rule: nonzero; opacity: 1;" transform=" matrix(-0.7071 -0.7071 0.7071 -0.7071 463.7429 531.9701) "/>
  <path d="M 256 193.049 c -34.767 0 -62.951 28.184 -62.951 62.951 s 28.184 62.951 62.951 62.951 s 62.951 -28.184 62.951 -62.951 S 290.767 193.049 256 193.049 z M 256 285.377 c -16.225 0 -29.377 -13.153 -29.377 -29.377 s 13.153 -29.377 29.377 -29.377 c 16.225 0 29.377 13.153 29.377 29.377 C 285.377 272.224 272.224 285.377 256 285.377 z" style="stroke: none; stroke-width: 1; stroke-dasharray: none; stroke-linecap: butt; stroke-linejoin: miter; stroke-miterlimit: 10; fill: #38CED9; fill-rule: nonzero; opacity: 1;" transform=" matrix(1 0 0 1 0 0) " stroke-linecap="round" />
  <path d="M 256 113.311 c -78.805 0 -142.689 63.884 -142.689 142.689 S 177.195 398.689 256 398.689 S 398.689 334.805 398.689 256 S 334.805 113.311 256 113.311 z M 256 360.918 c -57.944 0 -104.918 -46.974 -104.918 -104.918 S 198.056 151.082 256 151.082 S 360.918 198.056 360.918 256 S 313.944 360.918 256 360.918 z" style="stroke: none; stroke-width: 1; stroke-dasharray: none; stroke-linecap: butt; stroke-linejoin: miter; stroke-miterlimit: 10; fill: #38CED9; fill-rule: nonzero; opacity: 1;" transform=" matrix(1 0 0 1 0 0) " stroke-linecap="round" />
</g>
</svg>